# xmcd CD database file
#
# Track frame offsets:
#	150
#	23824
#	44169
#	70594
#	94799
#	128332
#	152738
#	180970
#	207093
#	229990
#
# Disc length: 3447 seconds
#
# Revision: 0
# Processed by: cddbd v1.5.2PL0 Copyright (c) Steve Scherf et al.
# Submitted via: CDex 1.70beta2
#
DISCID=790d750a
DTITLE=Nils Rohwer and Jens Schliecker - piano meets vibes
DYEAR=2000
DGENRE=Jazz
TTITLE0=Bilder einer Reise
TTITLE1=Zu Spät
TTITLE2=Milonga di Saluto
TTITLE3=Labyrinth
TTITLE4=Orient-Express
TTITLE5=Hinter dem Fenster
TTITLE6=Nur für Dich
TTITLE7=Déjà-vu
TTITLE8=Das Buch
TTITLE9=Music 4/4
EXTD=YEAR: 2000
EXTT0=
EXTT1=
EXTT2=
EXTT3=
EXTT4=
EXTT5=
EXTT6=
EXTT7=
EXTT8=
EXTT9=
PLAYORDER=
